<svg width="50" height="50" viewBox="0 0 50 50" fill="none" xmlns="http://www.w3.org/2000/svg">
<circle cx="25" cy="25" r="25" fill="#141414"/>
<path d="M23.4286 12C21.7 12 20.2857 13.4625 20.2857 15.25H17.1429C15.4143 15.25 14 16.7125 14 18.5H36C36 16.7125 34.5857 15.25 32.8571 15.25H29.7143C29.7143 13.4625 28.3 12 26.5714 12H23.4286ZM17.1429 21.75V37.3825C17.1429 37.74 17.3943 38 17.74 38H32.2914C32.6371 38 32.8886 37.74 32.8886 37.3825V21.75H29.7457V33.125C29.7457 34.035 29.0543 34.75 28.1743 34.75C27.2943 34.75 26.6029 34.035 26.6029 33.125V21.75H23.46V33.125C23.46 34.035 22.7686 34.75 21.8886 34.75C21.0086 34.75 20.3171 34.035 20.3171 33.125V21.75H17.1743H17.1429Z" fill="#FBFBFB"/>
</svg>
