<svg width="50" height="50" viewBox="0 0 50 50" fill="none" xmlns="http://www.w3.org/2000/svg">
<circle cx="25" cy="25" r="25" fill="#141414"/>
<path d="M23.4192 12V15.2459H21.024C18.8523 15.2459 17.0319 17.0961 17.0319 19.3034V20.9263C17.0319 23.1336 18.4371 24.9513 20.513 25.5031L28.6886 27.6454C29.1357 27.7753 29.7745 28.5868 29.7745 29.0737V30.6966C29.7745 31.1511 29.4232 31.5081 28.976 31.5081H20.992C20.6088 31.5081 20.3214 31.3783 20.1936 31.3134V28.2622H17V31.5081C17 32.6117 17.6387 33.5531 18.4052 34.0399C19.1397 34.5593 20.0659 34.7541 20.992 34.7541H23.3872V38H26.5808V34.7541H28.976C31.1796 34.7541 32.9681 32.9363 32.9681 30.6966V29.0737C32.9681 26.8664 31.5629 25.0487 29.487 24.4969L21.3114 22.3546C20.8643 22.2247 20.2255 21.4132 20.2255 20.9263V19.3034C20.2255 18.8489 20.5768 18.4919 21.024 18.4919H29.008C29.3593 18.4919 29.6786 18.6217 29.8064 18.6866V21.7378H33V18.4919C33 17.3883 32.3613 16.4469 31.5948 15.9601C30.8603 15.4407 29.9341 15.2459 29.008 15.2459H26.6128V12L23.4192 12Z" fill="#FBFBFB"/>
</svg>
